<?xml version="1.0" encoding="UTF-8" standalone="no"?>
<!-- Created with Inkscape (http://www.inkscape.org/) -->

<svg
   xmlns:dc="http://purl.org/dc/elements/1.1/"
   xmlns:cc="http://creativecommons.org/ns#"
   xmlns:rdf="http://www.w3.org/1999/02/22-rdf-syntax-ns#"
   xmlns:svg="http://www.w3.org/2000/svg"
   xmlns="http://www.w3.org/2000/svg"
   xmlns:sodipodi="http://sodipodi.sourceforge.net/DTD/sodipodi-0.dtd"
   xmlns:inkscape="http://www.inkscape.org/namespaces/inkscape"
   version="1.1"
   id="svg3949"
   xml:space="preserve"
   width="395.27707"
   height="55.837833"
   viewBox="0 0 395.27708 55.837835"
   sodipodi:docname="logo2.svg"
   inkscape:version="0.92.2 (5c3e80d, 2017-08-06)"
   inkscape:export-filename="C:\Users\Fahad\iCloudDrive\GitHub\rizvi-website\index_files\logo2.png"
   inkscape:export-xdpi="51.577934"
   inkscape:export-ydpi="51.577934"><metadata
     id="metadata3955"><rdf:RDF><cc:Work
         rdf:about=""><dc:format>image/svg+xml</dc:format><dc:type
           rdf:resource="http://purl.org/dc/dcmitype/StillImage" /><dc:title /></cc:Work></rdf:RDF></metadata><defs
     id="defs3953"><clipPath
       clipPathUnits="userSpaceOnUse"
       id="clipPath3973"><path
         d="M 0,1150 H 1750 V 0 H 0 Z"
         id="path3971"
         inkscape:connector-curvature="0" /></clipPath></defs><sodipodi:namedview
     pagecolor="#ffffff"
     bordercolor="#666666"
     borderopacity="1"
     objecttolerance="10"
     gridtolerance="10"
     guidetolerance="10"
     inkscape:pageopacity="0"
     inkscape:pageshadow="2"
     inkscape:window-width="1920"
     inkscape:window-height="1057"
     id="namedview3951"
     showgrid="false"
     inkscape:zoom="0.61565221"
     inkscape:cx="-273.44848"
     inkscape:cy="-27.565667"
     inkscape:window-x="-8"
     inkscape:window-y="-8"
     inkscape:window-maximized="1"
     inkscape:current-layer="g3957" /><g
     id="g3957"
     inkscape:groupmode="layer"
     inkscape:label="Ontario_Metals_Exchange"
     transform="matrix(1.3333333,0,0,-1.3333333,-1734.2692,324.09638)"><g
       id="g4334"
       inkscape:export-xdpi="96"
       inkscape:export-ydpi="96"><g
         transform="translate(1305.3299,221.36229)"
         id="g4101"><path
           inkscape:connector-curvature="0"
           id="path4103"
           style="fill:#ffffff;fill-opacity:1;fill-rule:nonzero;stroke:none"
           d="m 0,0 c 0,-8.854 7.427,-15.996 16.34,-15.996 8.912,0 16.224,7.142 16.224,15.996 0,8.855 -7.312,15.883 -16.224,15.883 C 7.427,15.883 0,8.855 0,0 m 37.249,0 c 0,-11.255 -9.255,-20.167 -20.909,-20.167 -11.712,0 -20.968,8.912 -20.968,20.167 0,11.255 9.256,20.11 20.968,20.11 11.654,0 20.909,-8.855 20.909,-20.11" /></g><g
         transform="translate(1377.828,219.87689)"
         id="g4105"><path
           inkscape:connector-curvature="0"
           id="path4107"
           style="fill:#ffffff;fill-opacity:1;fill-rule:nonzero;stroke:none"
           d="m 0,0 v -18.51 h -4.456 v 17.367 c 0,5.372 -3.199,8.571 -8.513,8.571 -5.941,-0.058 -9.597,-4 -10.112,-9.827 V -18.51 h -4.456 v 30.051 h 4.456 V 4.913 c 2.114,4.571 6.17,6.742 11.655,6.799 C -4.228,11.712 0,7.313 0,0" /></g><g
         transform="translate(1403.3075,203.42379)"
         id="g4109"><path
           inkscape:connector-curvature="0"
           id="path4111"
           style="fill:#ffffff;fill-opacity:1;fill-rule:nonzero;stroke:none"
           d="m 0,0 c -2.114,-1.429 -4.399,-2.229 -6.799,-2.229 -4.399,-0.056 -7.655,2.572 -7.655,8.513 v 17.311 h -4.342 v 3.485 h 4.342 v 7.884 h 4.398 V 27.08 h 9.541 v -3.485 h -9.541 V 7.026 c 0,-3.656 1.429,-5.141 4,-5.141 1.542,0.057 3.142,0.571 4.799,1.543 z" /></g><g
         transform="translate(1428.6737,211.70799)"
         id="g4113"><path
           inkscape:connector-curvature="0"
           id="path4115"
           style="fill:#ffffff;fill-opacity:1;fill-rule:nonzero;stroke:none"
           d="m 0,0 v 3.656 h -9.37 c -5.027,0 -7.655,-1.543 -7.655,-4.914 0,-3.313 2.685,-5.541 6.913,-5.541 5.085,0 8.969,2.514 10.112,6.799 m 0.057,-10.341 v 4.685 c -2.4,-3.257 -6.227,-4.857 -11.027,-4.857 -6.227,0 -10.226,3.943 -10.226,9.084 0,5.256 4.171,8.57 11.255,8.627 h 9.883 v 1.885 c 0,4.399 -2.742,7.085 -8.054,7.085 -3.315,0 -6.4,-1.257 -9.541,-3.485 l -1.886,3.142 c 3.885,2.571 7.142,4.056 12.283,4.056 7.427,0 11.54,-3.943 11.598,-10.34 l 0.056,-19.882 z" /></g><g
         transform="translate(1458.2664,231.58889)"
         id="g4117"><path
           inkscape:connector-curvature="0"
           id="path4119"
           style="fill:#ffffff;fill-opacity:1;fill-rule:nonzero;stroke:none"
           d="m 0,0 v -4.342 c -6.342,0.114 -10.283,-3.828 -10.798,-9.884 v -15.996 h -4.456 v 30.051 h 4.456 V -6.855 C -8.798,-2.456 -5.085,-0.057 0,0" /></g><path
         inkscape:connector-curvature="0"
         id="path4121"
         style="fill:#ffffff;fill-opacity:1;fill-rule:nonzero;stroke:none"
         d="m 1468.6635,201.36729 h -4.399 v 30.051 h 4.399 z m 0.686,38.678 c 0,-1.715 -1.257,-3.029 -2.914,-3.029 -1.656,0 -2.913,1.314 -2.913,3.029 0,1.77 1.257,3.027 2.913,3.027 1.657,0 2.914,-1.257 2.914,-3.027" /><g
         transform="translate(1480.9461,216.39259)"
         id="g4123"><path
           inkscape:connector-curvature="0"
           id="path4125"
           style="fill:#ffffff;fill-opacity:1;fill-rule:nonzero;stroke:none"
           d="m 0,0 c 0,-6.742 4.457,-11.313 10.799,-11.313 6.284,0 10.797,4.571 10.797,11.313 0,6.627 -4.513,11.254 -10.797,11.254 C 4.457,11.254 0,6.627 0,0 m 26.053,0.057 c 0,-8.97 -6.342,-15.254 -15.254,-15.254 -8.97,0 -15.254,6.284 -15.254,15.254 0,8.912 6.284,15.139 15.254,15.139 8.912,0 15.254,-6.227 15.254,-15.139" /></g><g
         transform="translate(1568.9764,201.36719)"
         id="g4127"><path
           inkscape:connector-curvature="0"
           id="path4129"
           style="fill:#ffffff;fill-opacity:1;fill-rule:nonzero;stroke:none"
           d="M 0,0 H 18.683 L 9.256,13.312 Z" /></g><g
         transform="translate(1586.5174,241.19339)"
         id="g4131"><path
           inkscape:connector-curvature="0"
           id="path4133"
           style="fill:#ffffff;fill-opacity:1;fill-rule:nonzero;stroke:none"
           d="m 0,0 h -16.514 l 8.229,-12.061 z" /></g><g
         transform="translate(1572.7479,221.82029)"
         id="g4135"><path
           inkscape:connector-curvature="0"
           id="path4137"
           style="fill:#ffffff;fill-opacity:1;fill-rule:nonzero;stroke:none"
           d="M 0,0 -13.098,19.538 H -25.587 L -37.185,-4.914 -48.839,19.538 h -10.112 v -39.991 h 8.169 V 6.513 l 10.627,-22.91 h 5.884 l 10.626,22.91 v -26.966 h 10.547 z" /></g><g
         transform="translate(1596.9237,241.19339)"
         id="g4139"><path
           inkscape:connector-curvature="0"
           id="path4141"
           style="fill:#ffffff;fill-opacity:1;fill-rule:nonzero;stroke:none"
           d="M 0,0 -13.704,-19.703 0.236,-39.815 V 0 Z" /></g></g></g></svg>