<?xml version="1.0" encoding="UTF-8" standalone="no"?>
<!-- Created with Inkscape (http://www.inkscape.org/) -->

<svg
   xmlns:dc="http://purl.org/dc/elements/1.1/"
   xmlns:cc="http://creativecommons.org/ns#"
   xmlns:rdf="http://www.w3.org/1999/02/22-rdf-syntax-ns#"
   xmlns:svg="http://www.w3.org/2000/svg"
   xmlns="http://www.w3.org/2000/svg"
   xmlns:sodipodi="http://sodipodi.sourceforge.net/DTD/sodipodi-0.dtd"
   xmlns:inkscape="http://www.inkscape.org/namespaces/inkscape"
   version="1.1"
   id="svg3699"
   xml:space="preserve"
   width="1694.985"
   height="239.4361"
   viewBox="0 0 1694.985 239.4361"
   sodipodi:docname="logo.svg"
   inkscape:version="0.92.2 (5c3e80d, 2017-08-06)"
   inkscape:export-filename="C:\Users\Fahad\iCloudDrive\GitHub\rizvi-website\index_files\logo.png"
   inkscape:export-xdpi="12.007186"
   inkscape:export-ydpi="12.007186"><metadata
     id="metadata3705"><rdf:RDF><cc:Work
         rdf:about=""><dc:format>image/svg+xml</dc:format><dc:type
           rdf:resource="http://purl.org/dc/dcmitype/StillImage" /><dc:title /></cc:Work></rdf:RDF></metadata><defs
     id="defs3703"><clipPath
       clipPathUnits="userSpaceOnUse"
       id="clipPath3715"><path
         d="M 0,1150 H 1750 V 0 H 0 Z"
         id="path3713"
         inkscape:connector-curvature="0" /></clipPath></defs><sodipodi:namedview
     pagecolor="#ffffff"
     bordercolor="#666666"
     borderopacity="1"
     objecttolerance="10"
     gridtolerance="10"
     guidetolerance="10"
     inkscape:pageopacity="0"
     inkscape:pageshadow="2"
     inkscape:window-width="1920"
     inkscape:window-height="1057"
     id="namedview3701"
     showgrid="false"
     inkscape:zoom="0.57913047"
     inkscape:cx="594.52718"
     inkscape:cy="119.71879"
     inkscape:window-x="-8"
     inkscape:window-y="-8"
     inkscape:window-maximized="1"
     inkscape:current-layer="g3711"><inkscape:grid
       type="xygrid"
       id="grid3759"
       originx="-319.17399"
       originy="-646.94785" /></sodipodi:namedview><g
     id="g3707"
     inkscape:groupmode="layer"
     inkscape:label="Ontario_Metals_Exchange"
     transform="matrix(1.3333333,0,0,-1.3333333,-319.17399,886.38398)"><g
       id="g3709"><g
         id="g3711"
         clip-path="url(#clipPath3715)"><g
           id="g3717"
           transform="translate(259.2245,571.6946)"><path
             d="m 0,0 c 0,-37.972 31.848,-68.595 70.066,-68.595 38.216,0 69.574,30.623 69.574,68.595 0,37.974 -31.358,68.106 -69.574,68.106 C 31.848,68.106 0,37.974 0,0 m 159.729,0 c 0,-48.262 -39.687,-86.48 -89.663,-86.48 -50.222,0 -89.91,38.218 -89.91,86.48 0,48.262 39.688,86.235 89.91,86.235 49.976,0 89.663,-37.973 89.663,-86.235"
             style="fill:#a37832;fill-opacity:1;fill-rule:nonzero;stroke:none"
             id="path3719"
             inkscape:connector-curvature="0" /></g><g
           id="g3721"
           transform="translate(570.1024,565.3255)"><path
             d="m 0,0 v -79.375 h -19.109 v 74.476 c 0,23.028 -13.719,36.747 -36.502,36.747 -25.478,-0.245 -41.157,-17.149 -43.362,-42.138 v -69.085 h -19.109 V 49.487 h 19.109 V 21.068 c 9.065,19.6 26.458,28.909 49.977,29.153 C -18.129,50.221 0,31.358 0,0"
             style="fill:#a37832;fill-opacity:1;fill-rule:nonzero;stroke:none"
             id="path3723"
             inkscape:connector-curvature="0" /></g><g
           id="g3725"
           transform="translate(679.3612,494.7698)"><path
             d="M 0,0 C -9.065,-6.124 -18.864,-9.555 -29.154,-9.555 -48.017,-9.799 -61.981,1.471 -61.981,26.949 v 74.23 H -80.6 v 14.944 h 18.619 v 33.808 h 18.864 V 116.123 H -2.205 V 101.179 H -43.117 V 30.133 c 0,-15.679 6.124,-22.048 17.148,-22.048 6.615,0.245 13.474,2.45 20.579,6.615 z"
             style="fill:#a37832;fill-opacity:1;fill-rule:nonzero;stroke:none"
             id="path3727"
             inkscape:connector-curvature="0" /></g><g
           id="g3729"
           transform="translate(788.1337,530.2933)"><path
             d="m 0,0 v 15.679 h -40.179 c -21.558,0 -32.827,-6.616 -32.827,-21.07 0,-14.208 11.515,-23.761 29.644,-23.761 21.803,0 38.461,10.779 43.362,29.152 m 0.245,-44.343 v 20.09 c -10.29,-13.965 -26.703,-20.825 -47.282,-20.825 -26.704,0 -43.853,16.904 -43.853,38.954 0,22.537 17.884,36.746 48.262,36.991 h 42.382 v 8.085 c 0,18.864 -11.758,30.378 -34.542,30.378 -14.209,0 -27.439,-5.39 -40.912,-14.943 l -8.085,13.473 c 16.659,11.024 30.622,17.393 52.672,17.393 31.847,0 49.486,-16.903 49.731,-44.341 l 0.245,-85.255 z"
             style="fill:#a37832;fill-opacity:1;fill-rule:nonzero;stroke:none"
             id="path3731"
             inkscape:connector-curvature="0" /></g><g
           id="g3733"
           transform="translate(915.0321,615.5462)"><path
             d="M 0,0 V -18.618 C -27.194,-18.128 -44.098,-35.032 -46.303,-61 v -68.596 H -65.412 V -0.733 h 19.109 V -29.397 C -37.729,-10.533 -21.805,-0.244 0,0"
             style="fill:#a37832;fill-opacity:1;fill-rule:nonzero;stroke:none"
             id="path3735"
             inkscape:connector-curvature="0" /></g><path
           d="m 959.616,485.95 h -18.864 v 128.862 h 18.864 z m 2.94,165.855 c 0,-7.351 -5.39,-12.984 -12.495,-12.984 -7.104,0 -12.493,5.633 -12.493,12.984 0,7.595 5.389,12.983 12.493,12.983 7.105,0 12.495,-5.388 12.495,-12.983"
           style="fill:#a37832;fill-opacity:1;fill-rule:nonzero;stroke:none"
           id="path3737"
           inkscape:connector-curvature="0" /><g
           id="g3739"
           transform="translate(1012.285,550.3812)"><path
             d="m 0,0 c 0,-28.908 19.109,-48.507 46.303,-48.507 26.947,0 46.301,19.599 46.301,48.507 0,28.419 -19.354,48.262 -46.301,48.262 C 19.109,48.262 0,28.419 0,0 m 111.713,0.246 c 0,-38.463 -27.193,-65.412 -65.41,-65.412 -38.463,0 -65.41,26.949 -65.41,65.412 0,38.217 26.947,64.919 65.41,64.919 38.217,0 65.41,-26.702 65.41,-64.919"
             style="fill:#a37832;fill-opacity:1;fill-rule:nonzero;stroke:none"
             id="path3741"
             inkscape:connector-curvature="0" /></g><g
           id="g3743"
           transform="translate(1389.7665,485.9505)"><path
             d="M 0,0 H 80.11 L 39.688,57.081 Z"
             style="fill:#3a3933;fill-opacity:1;fill-rule:nonzero;stroke:none"
             id="path3745"
             inkscape:connector-curvature="0" /></g><g
           id="g3747"
           transform="translate(1464.9803,656.7308)"><path
             d="m 0,0 h -70.812 l 35.286,-51.718 z"
             style="fill:#3a3933;fill-opacity:1;fill-rule:nonzero;stroke:none"
             id="path3749"
             inkscape:connector-curvature="0" /></g><g
           id="g3751"
           transform="translate(1405.9364,573.6556)"><path
             d="m 0,0 -56.162,83.783 h -53.557 L -159.45,-21.069 -209.427,83.783 h -43.361 V -87.705 h 35.032 V 27.928 l 45.566,-98.24 h 25.233 l 45.567,98.24 V -87.705 h 45.228 z"
             style="fill:#3a3933;fill-opacity:1;fill-rule:nonzero;stroke:none"
             id="path3753"
             inkscape:connector-curvature="0" /></g><g
           id="g3755"
           transform="translate(1509.6073,656.7308)"><path
             d="M 0,0 -58.765,-84.49 1.012,-170.73 V 0 Z"
             style="fill:#3a3933;fill-opacity:1;fill-rule:nonzero;stroke:none"
             id="path3757"
             inkscape:connector-curvature="0" /></g></g></g></g></svg>